<?xml version="1.0" encoding="UTF-8" standalone="no"?>
<!DOCTYPE svg PUBLIC "-//W3C//DTD SVG 1.1//EN" "http://www.w3.org/Graphics/SVG/1.1/DTD/svg11.dtd">
<svg width="100%" height="100%" viewBox="0 0 1817 549" version="1.1" xmlns="http://www.w3.org/2000/svg" xmlns:xlink="http://www.w3.org/1999/xlink" xml:space="preserve" xmlns:serif="http://www.serif.com/" style="fill-rule:evenodd;clip-rule:evenodd;stroke-linejoin:round;stroke-miterlimit:2;">
    <g transform="matrix(1,0,0,1,-291.807,-925.621)">
        <g transform="matrix(4.16667,0,0,4.16667,0,0)">
            <g transform="matrix(1,0,0,1,177.641,289.326)">
                <path d="M0,-45.302L8.994,-45.302L18.121,-10.793L26.981,-45.302L40.771,-45.302L40.771,0L32.044,0L32.044,-36.574L22.784,0L13.324,0L4.064,-36.574L4.064,0L-4.664,0L-4.664,-40.439C-4.664,-43.037 -2.598,-45.302 0,-45.302" style="fill:white;fill-rule:nonzero;"/>
            </g>
        </g>
        <g transform="matrix(4.16667,0,0,4.16667,0,0)">
            <g transform="matrix(1,0,0,1,227.611,279.267)">
                <path d="M0,-25.182C2.864,-25.182 4.264,-23.783 4.264,-20.918L4.264,10.06L-4.597,10.06L-4.597,-25.182L0,-25.182ZM0,-35.242C2.931,-35.242 4.33,-33.776 4.264,-30.911L4.264,-28.313L-4.597,-28.313L-4.597,-35.242L0,-35.242Z" style="fill:white;fill-rule:nonzero;"/>
            </g>
        </g>
        <g transform="matrix(4.16667,0,0,4.16667,0,0)">
            <g transform="matrix(1,0,0,1,245.599,262.345)">
                <path d="M0,9.261C-0.067,16.389 2.332,19.987 7.395,19.987C12.458,19.987 14.989,16.389 14.989,9.261C14.79,2.466 12.325,-0.865 7.528,-0.865C2.731,-0.865 0.266,2.466 0,9.261M23.783,-13.856L23.783,11.726C23.783,22.318 18.253,27.581 7.261,27.515C-3.664,27.315 -9.127,21.386 -9.127,9.66C-9.127,-2.331 -4.464,-8.46 4.93,-8.793C9.327,-8.793 12.724,-6.994 14.989,-3.33L14.989,-18.32L19.386,-18.32C21.785,-18.32 23.783,-16.255 23.783,-13.856" style="fill:white;fill-rule:nonzero;"/>
            </g>
        </g>
        <g transform="matrix(4.16667,0,0,4.16667,0,0)">
            <g transform="matrix(-1,0,0,1,562.553,-33.389)">
                <rect x="273.049" y="302.529" width="16.455" height="4.331" style="fill:white;"/>
            </g>
        </g>
        <g transform="matrix(4.16667,0,0,4.16667,0,0)">
            <g transform="matrix(1,0,0,1,309.092,260.946)">
                <path d="M0,11.459L12.458,11.459L6.195,-7.794L0,11.459ZM11.592,-16.921L27.847,28.38L18.054,28.38L15.056,19.12L-2.465,19.12L-5.463,28.38L-15.39,28.38L-0.267,-13.923C0.399,-15.922 1.865,-16.921 4.131,-16.921L11.592,-16.921Z" style="fill:white;fill-rule:nonzero;"/>
            </g>
        </g>
        <g transform="matrix(4.16667,0,0,4.16667,0,0)">
            <g transform="matrix(1,0,0,1,351.2,272.804)">
                <path d="M0,-12.391L-0.933,-12.391L-0.933,7.129C-0.933,8.594 -0.067,9.394 1.665,9.394L4.396,9.394L4.396,16.122C1.532,16.389 -1.6,16.389 -4.931,16.056C-8.262,15.723 -9.86,13.657 -9.794,9.727L-9.794,-28.78L-5.196,-28.78C-2.865,-28.78 -0.933,-26.648 -0.933,-24.316L-0.933,-18.72L4.396,-18.72L4.396,-16.788C4.396,-14.256 2.465,-12.391 0,-12.391" style="fill:white;fill-rule:nonzero;"/>
            </g>
        </g>
        <g transform="matrix(4.16667,0,0,4.16667,0,0)">
            <g transform="matrix(1,0,0,1,369.521,284.995)">
                <path d="M0,-36.64L0,4.331L-8.86,4.331L-8.86,-40.971L-4.264,-40.971C-1.933,-40.971 0,-38.972 0,-36.64" style="fill:white;fill-rule:nonzero;"/>
            </g>
        </g>
        <g transform="matrix(4.16667,0,0,4.16667,0,0)">
            <g transform="matrix(1,0,0,1,394.837,269.342)">
                <path d="M0,5.528L0,2.264C-2.064,3.13 -4.463,3.862 -7.062,4.396C-10.592,5.062 -12.391,6.727 -12.391,9.325C-12.191,12.123 -10.726,13.456 -7.928,13.456C-2.997,13.456 0,10.525 0,5.528M-11.191,-6.064L-20.052,-6.064C-18.986,-12.593 -14.39,-15.79 -6.262,-15.79C3.465,-15.79 8.395,-12.593 8.595,-6.064L8.595,5.928C8.595,15.654 2.731,19.985 -6.795,20.651C-15.256,21.318 -21.118,17.386 -21.118,9.592C-20.918,1.131 -14.789,-1.134 -5.862,-2C-2.064,-2.466 -0.133,-3.599 -0.133,-5.531C-0.333,-7.53 -2.198,-8.529 -5.862,-8.529C-8.993,-8.529 -10.726,-7.729 -11.191,-6.064" style="fill:white;fill-rule:nonzero;"/>
            </g>
        </g>
        <g transform="matrix(4.16667,0,0,4.16667,0,0)">
            <g transform="matrix(1,0,0,1,433.213,253.551)">
                <path d="M0,35.775C-2.931,35.576 -4.396,34.176 -4.396,31.378L-4.396,13.257C-4.597,9.593 -6.595,7.795 -10.525,7.795C-14.456,7.795 -16.455,9.593 -16.521,13.257L-16.521,35.775L-25.515,35.775L-25.515,15.056C-25.515,4.997 -20.452,0 -10.393,0C-0.333,0 4.598,4.997 4.53,15.056L4.53,35.775L0,35.775Z" style="fill:white;fill-rule:nonzero;"/>
            </g>
        </g>
        <g transform="matrix(4.16667,0,0,4.16667,0,0)">
            <g transform="matrix(1,0,0,1,451.536,272.804)">
                <path d="M0,-12.391L-0.933,-12.391L-0.933,7.129C-0.933,8.594 -0.066,9.394 1.665,9.394L4.396,9.394L4.396,16.122C1.532,16.389 -1.599,16.389 -4.93,16.056C-8.261,15.723 -9.86,13.657 -9.793,9.727L-9.793,-28.78L-5.196,-28.78C-2.865,-28.78 -0.933,-26.648 -0.933,-24.316L-0.933,-18.72L4.396,-18.72L4.396,-16.788C4.396,-14.256 2.465,-12.391 0,-12.391" style="fill:white;fill-rule:nonzero;"/>
            </g>
        </g>
        <g transform="matrix(4.16667,0,0,4.16667,0,0)">
            <g transform="matrix(1,0,0,1,465.594,279.267)">
                <path d="M0,-25.182C2.864,-25.182 4.264,-23.783 4.264,-20.918L4.264,10.06L-4.597,10.06L-4.597,-25.182L0,-25.182ZM0,-35.242C2.931,-35.242 4.33,-33.776 4.264,-30.911L4.264,-28.313L-4.597,-28.313L-4.597,-35.242L0,-35.242Z" style="fill:white;fill-rule:nonzero;"/>
            </g>
        </g>
        <g transform="matrix(4.16667,0,0,4.16667,0,0)">
            <g transform="matrix(1,0,0,1,490.977,253.751)">
                <path d="M0,36.375C-10.659,36.375 -16.122,30.246 -16.389,18.121C-16.389,6.063 -10.993,0 -0.134,-0.2C8.394,-0.2 13.457,3.598 14.989,11.259L5.329,11.259C4.264,8.861 2.397,7.595 -0.4,7.595C-5.063,7.595 -7.396,11.125 -7.396,18.121C-7.396,25.116 -4.931,28.646 0,28.58C2.064,28.58 3.863,27.714 5.329,26.048C6.195,25.183 7.194,24.783 8.327,24.783L14.989,24.783C13.391,31.978 8.194,36.575 0,36.375" style="fill:white;fill-rule:nonzero;"/>
            </g>
        </g>
        <g transform="matrix(4.16667,0,0,4.16667,0,0)">
            <g transform="matrix(1,0,0,1,190.418,318.118)">
                <path d="M0,4.645L-9.529,4.645L-9.529,15.246L0.119,15.246C4.228,15.246 6.729,14.054 6.729,10.004C6.729,5.835 4.288,4.645 0,4.645M-0.357,-10.899L-9.529,-10.899L-9.529,-2.204L-0.238,-2.204C3.037,-2.204 5.717,-3.216 5.717,-6.611C5.717,-10.005 3.395,-10.899 -0.357,-10.899M0.714,22.571L-17.688,22.571L-17.688,-13.58C-17.688,-15.902 -15.842,-17.926 -13.519,-17.926L1.37,-17.926C8.993,-17.926 14.055,-14.889 14.055,-7.683C14.055,-3.395 12.328,-0.834 9.171,0.714C13.162,2.262 15.484,4.883 15.484,10.243C15.484,18.64 9.469,22.571 0.714,22.571" style="fill:white;fill-rule:nonzero;"/>
            </g>
        </g>
        <g transform="matrix(4.16667,0,0,4.16667,0,0)">
            <g transform="matrix(1,0,0,1,227.877,322.822)">
                <path d="M0,4.943L0,2.025C-1.846,2.799 -3.99,3.455 -6.312,3.931C-9.469,4.526 -11.077,6.015 -11.077,8.339C-10.898,10.839 -9.588,12.031 -7.087,12.031C-2.68,12.031 0,9.41 0,4.943M-10.005,-5.419L-17.926,-5.419C-16.973,-11.255 -12.864,-14.115 -5.598,-14.115C3.097,-14.115 7.504,-11.255 7.683,-5.419L7.683,5.3C7.683,13.996 2.442,17.867 -6.074,18.463C-13.638,19.058 -18.879,15.545 -18.879,8.576C-18.7,1.012 -13.221,-1.012 -5.241,-1.786C-1.846,-2.203 -0.119,-3.215 -0.119,-4.943C-0.297,-6.73 -1.965,-7.622 -5.241,-7.622C-8.04,-7.622 -9.588,-6.908 -10.005,-5.419" style="fill:white;fill-rule:nonzero;"/>
            </g>
        </g>
        <g transform="matrix(4.16667,0,0,4.16667,0,0)">
            <g transform="matrix(1,0,0,1,247.292,316.57)">
                <path d="M0,8.277C-0.06,14.649 2.084,17.866 6.61,17.866C11.137,17.866 13.4,14.649 13.4,8.277C13.221,2.203 11.018,-0.775 6.729,-0.775C2.441,-0.775 0.238,2.203 0,8.277M0,-2.979C2.025,-6.254 5.002,-7.863 8.933,-7.863C17.331,-7.565 21.499,-2.085 21.499,8.634C21.499,19.116 16.616,24.417 6.849,24.595C-2.978,24.655 -7.921,19.95 -7.921,10.481L-7.921,-16.378L-3.931,-16.378C-1.311,-16.378 0,-15.009 0,-12.388L0,-2.979Z" style="fill:white;fill-rule:nonzero;"/>
            </g>
        </g>
        <g transform="matrix(4.16667,0,0,4.16667,0,0)">
            <g transform="matrix(1,0,0,1,276.653,315.912)">
                <path d="M0,30.375C4.348,30.375 5.896,28.23 4.646,24.062L-6.075,-6.729L2.918,-6.729L9.171,15.129L14.65,-3.929C15.126,-5.775 16.377,-6.729 18.402,-6.729L23.941,-6.729L11.494,30.137C9.588,35.317 7.683,37.104 1.131,37.104C-0.894,37.104 -1.965,37.045 -2.204,36.866L-2.204,30.375L0,30.375Z" style="fill:white;fill-rule:nonzero;"/>
            </g>
        </g>
        <g transform="matrix(4.16667,0,0,4.16667,0,0)">
            <g transform="matrix(1,0,0,1,347.344,340.689)">
                <path d="M0,-31.505L-8.755,0L-16.973,0L-21.737,-22.571L-26.74,0L-35.019,0L-43.653,-31.505L-35.613,-31.505L-30.611,-9.648L-26.085,-31.505L-17.687,-31.505L-13.399,-9.648L-9.111,-28.587C-8.517,-30.552 -7.206,-31.505 -5.24,-31.505L0,-31.505Z" style="fill:white;fill-rule:nonzero;"/>
            </g>
        </g>
        <g transform="matrix(4.16667,0,0,4.16667,0,0)">
            <g transform="matrix(1,0,0,1,357.886,328.599)">
                <path d="M0,-7.087L11.852,-7.087C11.375,-11.256 9.41,-13.399 6.016,-13.399C2.621,-13.399 0.596,-11.256 0,-7.087M6.016,12.805C-3.514,12.507 -8.277,6.968 -8.277,-3.752C-8.277,-14.472 -3.454,-19.832 6.135,-19.892C16.14,-19.892 20.845,-13.757 20.249,-1.429L-0.119,-1.429C0.179,3.394 2.264,5.837 6.135,5.837C7.98,5.837 9.708,5.062 11.256,3.573C11.971,2.799 12.864,2.442 13.937,2.442L19.772,2.442C18.046,9.112 13.758,12.805 6.016,12.805" style="fill:white;fill-rule:nonzero;"/>
            </g>
        </g>
        <g transform="matrix(4.16667,0,0,4.16667,0,0)">
            <g transform="matrix(1,0,0,1,399.991,322.822)">
                <path d="M0,4.943L0,2.025C-1.847,2.799 -3.99,3.455 -6.313,3.931C-9.47,4.526 -11.077,6.015 -11.077,8.339C-10.898,10.839 -9.589,12.031 -7.087,12.031C-2.681,12.031 0,9.41 0,4.943M-10.006,-5.419L-17.927,-5.419C-16.974,-11.255 -12.864,-14.115 -5.599,-14.115C3.097,-14.115 7.504,-11.255 7.683,-5.419L7.683,5.3C7.683,13.996 2.441,17.867 -6.075,18.463C-13.639,19.058 -18.879,15.545 -18.879,8.576C-18.7,1.012 -13.222,-1.012 -5.241,-1.786C-1.847,-2.203 -0.119,-3.215 -0.119,-4.943C-0.298,-6.73 -1.966,-7.622 -5.241,-7.622C-8.04,-7.622 -9.589,-6.908 -10.006,-5.419" style="fill:white;fill-rule:nonzero;"/>
            </g>
        </g>
        <g transform="matrix(4.16667,0,0,4.16667,0,0)">
            <g transform="matrix(1,0,0,1,411.484,325.443)">
                <path d="M0,-1.013C0.238,-11.197 5.658,-16.259 16.199,-16.259L17.331,-16.259L17.331,-8.04L14.651,-8.04C10.244,-8.04 8.04,-5.718 8.04,-1.132L8.04,15.246L0,15.246L0,-1.013Z" style="fill:white;fill-rule:nonzero;"/>
            </g>
        </g>
        <g transform="matrix(4.16667,0,0,4.16667,0,0)">
            <g transform="matrix(1,0,0,1,437.807,331.697)">
                <path d="M0,-22.513C2.562,-22.513 3.812,-21.262 3.812,-18.701L3.812,8.992L-4.109,8.992L-4.109,-22.513L0,-22.513ZM0,-31.505C2.621,-31.505 3.871,-30.196 3.812,-27.634L3.812,-25.312L-4.109,-25.312L-4.109,-31.505L0,-31.505Z" style="fill:white;fill-rule:nonzero;"/>
            </g>
        </g>
        <g transform="matrix(4.16667,0,0,4.16667,0,0)">
            <g transform="matrix(1,0,0,1,468.894,308.707)">
                <path d="M0,31.981C-2.62,31.802 -3.93,30.551 -3.93,28.05L-3.93,11.851C-4.108,8.576 -5.896,6.968 -9.409,6.968C-12.923,6.968 -14.71,8.576 -14.77,11.851L-14.77,31.981L-22.81,31.981L-22.81,13.46C-22.81,4.466 -18.283,0 -9.29,0C-0.297,0 4.109,4.466 4.05,13.46L4.05,31.981L0,31.981Z" style="fill:white;fill-rule:nonzero;"/>
            </g>
        </g>
        <g transform="matrix(4.16667,0,0,4.16667,0,0)">
            <g transform="matrix(1,0,0,1,497.6,337.651)">
                <path d="M0,-12.447C0.06,-18.819 -2.145,-21.975 -6.67,-21.975C-11.196,-21.975 -13.4,-18.819 -13.4,-12.447C-13.222,-6.373 -11.077,-3.335 -6.789,-3.335C-2.501,-3.335 -0.238,-6.373 0,-12.447M-21.559,-12.685C-21.559,-23.167 -16.676,-28.408 -6.908,-28.587C2.918,-28.646 7.861,-24.001 7.861,-14.531L7.861,4.11C7.861,12.031 2.858,16.021 -7.206,16.199C-14.353,16.199 -18.879,12.864 -20.726,6.194L-11.971,6.194C-11.435,8.457 -9.589,9.529 -6.312,9.529C-2.145,9.529 0,7.087 0,2.203L0,-1.012C-2.025,2.084 -5.062,3.633 -8.993,3.633C-17.391,3.633 -21.559,-1.846 -21.559,-12.685" style="fill:white;fill-rule:nonzero;"/>
            </g>
        </g>
        <g transform="matrix(4.16667,0,0,4.16667,0,0)">
            <g transform="matrix(0.391846,0,0,-0.391846,72.1171,238.803)">
                <path d="M0,-0.538C0.319,-0.36 0.653,-0.212 0.998,-0.099C0.74,0.097 0.472,0.301 0.176,0.539C0.112,0.179 0.064,-0.181 0,-0.538Z" style="fill:url(#_Linear1);fill-rule:nonzero;"/>
            </g>
        </g>
        <g transform="matrix(4.16667,0,0,4.16667,0,0)">
            <g transform="matrix(88.3299,0,0,-88.3299,70.0333,284.888)">
                <path d="M0.309,0.533C0.292,0.397 0.33,0.323 0.426,0.312C0.523,0.301 0.579,0.364 0.595,0.5C0.606,0.63 0.566,0.698 0.475,0.709C0.468,0.71 0.461,0.71 0.454,0.71C0.375,0.71 0.328,0.652 0.309,0.533ZM0.004,0.154C0.004,0.149 0.008,0.144 0.012,0.14C0.294,-0.039 0.604,-0.168 0.93,-0.242C0.965,-0.15 0.987,-0.056 1,0.041C0.651,0.123 0.319,0.268 0.021,0.469C0.019,0.47 0.017,0.471 0.016,0.473C0,0.366 -0.004,0.26 0.004,0.154ZM0.702,0.463C0.64,0.46 0.611,0.416 0.612,0.328C0.615,0.237 0.648,0.192 0.713,0.195C0.778,0.199 0.808,0.246 0.804,0.338C0.797,0.422 0.766,0.463 0.708,0.463C0.706,0.463 0.704,0.463 0.702,0.463ZM0.04,-0.094C0.096,-0.075 0.151,-0.057 0.207,-0.038C0.14,-0.003 0.074,0.034 0.01,0.074C0.016,0.017 0.026,-0.038 0.04,-0.094ZM0.278,-0.074C0.203,-0.099 0.128,-0.124 0.054,-0.149C0.08,-0.244 0.117,-0.334 0.17,-0.417C0.34,-0.381 0.501,-0.316 0.648,-0.223C0.522,-0.182 0.398,-0.132 0.278,-0.074C0.278,-0.074 0.278,-0.074 0.278,-0.074ZM0.711,-0.25C0.556,-0.354 0.384,-0.428 0.203,-0.468C0.23,-0.498 0.254,-0.527 0.282,-0.552C0.406,-0.667 0.56,-0.679 0.693,-0.584C0.795,-0.511 0.859,-0.409 0.909,-0.296C0.844,-0.281 0.78,-0.264 0.717,-0.245C0.715,-0.247 0.713,-0.248 0.711,-0.25Z" style="fill:url(#_Linear2);fill-rule:nonzero;"/>
            </g>
        </g>
    </g>
    <defs>
        <linearGradient id="_Linear1" x1="0" y1="0" x2="1" y2="0" gradientUnits="userSpaceOnUse" gradientTransform="matrix(1,0,0,-1,0,0.000576758)"><stop offset="0" style="stop-color:rgb(96,200,211);stop-opacity:1"/><stop offset="1" style="stop-color:rgb(161,115,178);stop-opacity:1"/></linearGradient>
        <linearGradient id="_Linear2" x1="0" y1="0" x2="1" y2="0" gradientUnits="userSpaceOnUse" gradientTransform="matrix(1,0,0,-1,0,0.031359)"><stop offset="0" style="stop-color:rgb(96,200,211);stop-opacity:1"/><stop offset="1" style="stop-color:rgb(161,115,178);stop-opacity:1"/></linearGradient>
    </defs>
</svg>
