<?xml version="1.0" encoding="UTF-8" standalone="no"?>
<!DOCTYPE svg PUBLIC "-//W3C//DTD SVG 1.1//EN" "http://www.w3.org/Graphics/SVG/1.1/DTD/svg11.dtd">
<svg width="100%" height="100%" viewBox="0 0 54 54" version="1.1" xmlns="http://www.w3.org/2000/svg" xmlns:xlink="http://www.w3.org/1999/xlink" xml:space="preserve" xmlns:serif="http://www.serif.com/" style="fill-rule:evenodd;clip-rule:evenodd;stroke-linejoin:round;stroke-miterlimit:2;">
    <g transform="matrix(1,0,0,1,-1318.39,-24.0963)">
        <g transform="matrix(0.794988,0,0,0.794988,1123.3,-79.3654)">
            <g id="Plus-Icon" serif:id="Plus Icon" transform="matrix(2.90891,0,0,2.90891,-2192.27,-9050.37)">
                <path d="M859.5,3169L851,3169L851,3177.5C851,3178.33 850.328,3179 849.5,3179C848.672,3179 848,3178.33 848,3177.5L848,3169L839.5,3169C838.672,3169 838,3168.33 838,3167.5C838,3166.67 838.672,3166 839.5,3166L848,3166L848,3157.5C848,3156.67 848.672,3156 849.5,3156C850.328,3156 851,3156.67 851,3157.5L851,3166L859.5,3166C860.328,3166 861,3166.67 861,3167.5C861,3168.33 860.328,3169 859.5,3169Z" style="fill:white;"/>
            </g>
        </g>
    </g>
</svg>
