<?xml version="1.0" encoding="UTF-8" standalone="no"?>
<!DOCTYPE svg PUBLIC "-//W3C//DTD SVG 1.1//EN" "http://www.w3.org/Graphics/SVG/1.1/DTD/svg11.dtd">
<svg width="100%" height="100%" viewBox="0 0 48 52" version="1.1" xmlns="http://www.w3.org/2000/svg" xmlns:xlink="http://www.w3.org/1999/xlink" xml:space="preserve" xmlns:serif="http://www.serif.com/" style="fill-rule:evenodd;clip-rule:evenodd;stroke-linejoin:round;stroke-miterlimit:2;">
    <g transform="matrix(1,0,0,1,-1458.68,-21.9615)">
        <g transform="matrix(0.569521,0,0,0.569521,1135.53,-50.628)">
            <g id="Cart-Icon" serif:id="Cart Icon" transform="matrix(3.4535,0,0,3.771,-64.6161,-11359)">
                <path d="M206.635,3069.42C206.332,3069.8 205.927,3070 205.452,3070L184.549,3070C184.074,3070 183.669,3069.8 183.365,3069.42C183.062,3069.05 182.95,3068.6 183.037,3068.11L184.88,3056.29C185.018,3055.53 185.643,3054.99 186.392,3054.99L189,3054.99L189,3052C189,3048.69 191.686,3046 195,3046C198.314,3046 201,3048.69 201,3052L201,3054.99L203.609,3054.99C204.358,3054.99 204.982,3055.53 205.12,3056.29L206.964,3068.11C207.051,3068.6 206.939,3069.05 206.635,3069.42ZM189,3055L189,3057.28C188.405,3057.62 188,3058.26 188,3059C188,3060.11 188.895,3061 190,3061C191.105,3061 192,3060.11 192,3059C192,3058.26 191.595,3057.62 191,3057.28L191,3055L189,3055ZM199,3052C199,3049.79 197.209,3048 195,3048C192.791,3048 191,3049.79 191,3052L191,3054.99L199,3054.99L199,3052ZM201,3057.28L201,3055L199,3055L199,3057.28C198.405,3057.62 198,3058.26 198,3059C198,3060.11 198.895,3061 200,3061C201.105,3061 202,3060.11 202,3059C202,3058.26 201.595,3057.62 201,3057.28Z" style="fill:white;"/>
            </g>
        </g>
    </g>
</svg>
