<?xml version="1.0" encoding="UTF-8" standalone="no"?>
<!DOCTYPE svg PUBLIC "-//W3C//DTD SVG 1.1//EN" "http://www.w3.org/Graphics/SVG/1.1/DTD/svg11.dtd">
<svg width="100%" height="100%" viewBox="0 0 52 45" version="1.1" xmlns="http://www.w3.org/2000/svg" xmlns:xlink="http://www.w3.org/1999/xlink" xml:space="preserve" xmlns:serif="http://www.serif.com/" style="fill-rule:evenodd;clip-rule:evenodd;stroke-linejoin:round;stroke-miterlimit:2;">
    <g transform="matrix(1,0,0,1,-1189.55,-26.3227)">
        <g transform="matrix(0.569521,0,0,0.569521,1135.53,-50.628)">
            <g id="User-Plus-Icon" serif:id="User Plus Icon" transform="matrix(3.24297,0,0,3.24297,-2259.55,-9386.26)">
                <path d="M747,2960C743.134,2960 740,2956.87 740,2953C740,2949.14 743.134,2946 747,2946C750.866,2946 754,2949.14 754,2953C754,2956.87 750.866,2960 747,2960ZM750,2952L748,2952L748,2950C748,2949.45 747.553,2949 747,2949C746.448,2949 746,2949.45 746,2950L746,2952L744,2952C743.448,2952 743,2952.45 743,2953C743,2953.55 743.448,2954 744,2954L746,2954L746,2956C746,2956.55 746.448,2957 747,2957C747.553,2957 748,2956.55 748,2956L748,2954L750,2954C750.552,2954 751,2953.55 751,2953C751,2952.45 750.552,2952 750,2952ZM738.06,2952C738.04,2952 738.02,2952 738,2952C734.678,2952 732,2947.59 732,2943.06C732,2938.84 734.505,2936 738,2936C741.495,2936 744,2938.84 744,2943.06C744,2943.56 743.962,2944.07 743.899,2944.56C740.76,2945.72 738.442,2948.56 738.06,2952ZM738,2954C738.02,2954 738.039,2954 738.058,2954C738.323,2956.4 739.532,2958.52 741.309,2959.97C740.358,2959.99 739.284,2960 738,2960C733.951,2960 731.814,2959.92 729.997,2959.62C727.451,2959.19 726,2958.28 726,2956.76C726,2954.75 728.592,2951.94 732.196,2950.31C733.652,2952.52 735.709,2954 738,2954Z" style="fill:rgb(248,251,255);"/>
            </g>
        </g>
    </g>
</svg>
