<?xml version="1.0" encoding="UTF-8" standalone="no"?>
<!DOCTYPE svg PUBLIC "-//W3C//DTD SVG 1.1//EN" "http://www.w3.org/Graphics/SVG/1.1/DTD/svg11.dtd">
<svg width="100%" height="100%" viewBox="0 0 840 1239" version="1.1" xmlns="http://www.w3.org/2000/svg" xmlns:xlink="http://www.w3.org/1999/xlink" xml:space="preserve" xmlns:serif="http://www.serif.com/" style="fill-rule:evenodd;clip-rule:evenodd;stroke-linejoin:round;stroke-miterlimit:2;">
    <g transform="matrix(1,0,0,1,-813.33,-450.595)">
        <g transform="matrix(1,0,0,1.05068,-200.806,198.585)">
            <ellipse cx="1439.9" cy="449.885" rx="222.803" ry="210.031"/>
        </g>
        <path d="M1380.2,948.937C1416.5,949.213 1445.81,978.695 1445.81,1014.97L1445.81,1135.11L1445.66,1134.8C1445.71,1134.9 1445.76,1135.01 1445.81,1135.11L1445.81,1204.63C1439.05,1225.3 1428,1244.64 1415.03,1262.8L1414.47,1263.58C1408.71,1271.63 1402.55,1279.48 1396.21,1287.11C1367.22,1322.06 1333.6,1352.89 1298.22,1381.92L1420.18,1443.18C1429.93,1446.35 1439.7,1449.49 1449.47,1452.65C1450.9,1453.12 1452.33,1453.58 1453.77,1454.05L1455.18,1454.51C1461.72,1457.56 1466.67,1464.15 1465.2,1471.6C1463.8,1478.76 1456.69,1484.15 1449.45,1483.61C1445.12,1483.29 1442.96,1481.95 1440.26,1481.08C1362.66,1455.96 1283.72,1431.03 1211.59,1390.2C1156.62,1359.08 1106.06,1318.47 1069.26,1266.37L1068.83,1265.76C1059.31,1252.26 1050.72,1237.98 1043.23,1222.88C1039,1214.38 1035.26,1205.59 1032.86,1196.57L1032.86,1014.97C1032.86,978.552 1062.41,948.982 1098.9,948.935L1379.78,948.935L1380.2,948.937ZM1395,1112.25C1385.66,1035.21 1319.38,975.416 1239.1,975.416C1152.44,975.416 1082.08,1045.1 1082.08,1130.94C1082.08,1216.77 1152.44,1286.46 1239.1,1286.46C1325.76,1286.46 1396.12,1216.77 1396.12,1130.94C1396.12,1124.61 1395.74,1118.38 1395,1112.25L1396.81,1112.55L1398.08,1112.77L1399.58,1113.02L1400.9,1113.24L1402.34,1113.49L1403.7,1113.73L1405.11,1113.97L1406.48,1114.21L1407.9,1114.46L1409.26,1114.7L1410.72,1114.96L1412.03,1115.19L1413.65,1115.48L1414.79,1115.69L1417.55,1116.19C1416.63,1116.02 1415.71,1115.85 1414.79,1115.69L1414.66,1115.66L1413.65,1115.48L1412.22,1115.22L1412.03,1115.19L1411.78,1115.15L1410.72,1114.96L1409.55,1114.75L1409.26,1114.7L1408.9,1114.63L1407.9,1114.46L1406.89,1114.28L1406.48,1114.21L1406.01,1114.13L1405.11,1113.97L1404.22,1113.82L1403.7,1113.73L1403.12,1113.63L1402.34,1113.49L1401.56,1113.36L1400.9,1113.24L1400.24,1113.13L1399.58,1113.02L1398.89,1112.9L1398.08,1112.77L1397.35,1112.64L1396.81,1112.55L1396.22,1112.45L1395,1112.25ZM1383.35,1272.92C1383.57,1272.91 1383.78,1272.9 1384,1272.88L1383.4,1272.92L1383.35,1272.92ZM1093.37,1272.79C1093.61,1272.81 1093.85,1272.83 1094.09,1272.84C1093.68,1272.82 1093.27,1272.78 1092.87,1272.75L1093.37,1272.79ZM1085.98,1271.75L1085.55,1271.66C1085.69,1271.69 1085.84,1271.72 1085.98,1271.75L1086.03,1271.76L1086.11,1271.78L1086.27,1271.81L1086.43,1271.84L1086.51,1271.86L1086.56,1271.86C1086.7,1271.89 1086.85,1271.92 1086.99,1271.94C1087.17,1271.98 1087.36,1272.01 1087.54,1272.04L1087.6,1272.05L1087.64,1272.06C1087.81,1272.09 1087.99,1272.12 1088.16,1272.15L1088.2,1272.15L1088.27,1272.16L1088.45,1272.19L1088.81,1272.25L1089.18,1272.31L1089.36,1272.33L1089.42,1272.34L1089.47,1272.35C1089.62,1272.37 1089.76,1272.39 1089.91,1272.41L1089.47,1272.35L1089.36,1272.33L1088.81,1272.25L1088.81,1272.25L1088.81,1272.25L1088.27,1272.16L1088.16,1272.15L1087.64,1272.06L1087.54,1272.04L1086.99,1271.94L1086.56,1271.86L1086.43,1271.84L1086.11,1271.78L1085.98,1271.75ZM1394.07,1271.46C1393.12,1271.67 1392.16,1271.86 1391.19,1272.03C1392.16,1271.86 1393.12,1271.67 1394.07,1271.46ZM1070.52,1266.6L1070.53,1266.6L1070.9,1266.78L1071.28,1266.96L1071.31,1266.97L1071.43,1267.03L1071.66,1267.13L1071.69,1267.15L1071.71,1267.16L1071.85,1267.22L1072.04,1267.31L1072.08,1267.32L1072.12,1267.34L1072.26,1267.4L1072.42,1267.48L1072.48,1267.5L1072.53,1267.52L1072.66,1267.58L1072.81,1267.64L1072.88,1267.67L1072.94,1267.7L1073.06,1267.75L1073.19,1267.81L1073.27,1267.84L1073.35,1267.88L1073.46,1267.92L1073.57,1267.97L1073.67,1268.01L1073.77,1268.05L1073.86,1268.09L1073.96,1268.13L1074.08,1268.18L1074.18,1268.22L1074.26,1268.25L1074.35,1268.29L1074.48,1268.34L1074.6,1268.39L1074.67,1268.41L1074.74,1268.44L1074.89,1268.5L1075.02,1268.55L1075.07,1268.57L1075.13,1268.6L1075.3,1268.66L1075.43,1268.71L1075.48,1268.73L1075.52,1268.75L1075.71,1268.82L1075.86,1268.87L1075.88,1268.88L1075.91,1268.89L1076.14,1268.98L1076.28,1269.03L1076.31,1269.04L1076.65,1269.16L1076.7,1269.18L1076.75,1269.2L1077.1,1269.32L1077.12,1269.33L1077.26,1269.38L1077.49,1269.46L1077.52,1269.47L1077.55,1269.48L1077.7,1269.53L1077.89,1269.6L1077.93,1269.61L1077.98,1269.62L1078.12,1269.67L1078.29,1269.73L1078.35,1269.75L1078.41,1269.77L1078.54,1269.81L1078.69,1269.86L1078.77,1269.88L1078.84,1269.9L1078.96,1269.94L1079.09,1269.99L1079.18,1270.02L1079.27,1270.04L1079.38,1270.08L1079.5,1270.11L1079.6,1270.14L1079.7,1270.17L1079.8,1270.2L1079.9,1270.24L1080.02,1270.27L1080.13,1270.31L1080.22,1270.33L1080.31,1270.36L1080.45,1270.4L1080.57,1270.43L1080.64,1270.45L1080.71,1270.48L1080.87,1270.52L1081,1270.56L1081.06,1270.57L1081.12,1270.59L1081.3,1270.64L1081.44,1270.68L1081.48,1270.69L1081.53,1270.7L1081.74,1270.76L1081.88,1270.8L1081.91,1270.81L1081.94,1270.81L1082.19,1270.88L1082.32,1270.91L1082.35,1270.92L1082.76,1271.03L1083.17,1271.13L1083.19,1271.13L1082.77,1271.03L1082.76,1271.03L1082.75,1271.02L1082.33,1270.92L1082.19,1270.88L1081.91,1270.81L1081.74,1270.76L1081.48,1270.69L1081.3,1270.64L1081.06,1270.57L1080.87,1270.52L1080.64,1270.45L1080.45,1270.4L1080.22,1270.33L1080.02,1270.27L1079.8,1270.2L1079.6,1270.14L1079.38,1270.08L1079.18,1270.02L1078.96,1269.94L1078.77,1269.88L1078.54,1269.81L1078.35,1269.75L1078.12,1269.67L1077.93,1269.61L1077.7,1269.53L1077.52,1269.47L1077.26,1269.38L1077.11,1269.33L1076.75,1269.2L1076.7,1269.18L1076.65,1269.16L1076.29,1269.03L1076.14,1268.98L1075.88,1268.88L1075.71,1268.82L1075.48,1268.73L1075.3,1268.66L1075.07,1268.57L1074.89,1268.5L1074.67,1268.41L1074.48,1268.34L1074.26,1268.25L1074.08,1268.18L1073.86,1268.09L1073.67,1268.01L1073.46,1267.92L1073.27,1267.84L1073.06,1267.75L1072.88,1267.67L1072.66,1267.58L1072.48,1267.5L1072.26,1267.4L1072.08,1267.32L1071.85,1267.22L1071.69,1267.15L1071.43,1267.03L1071.3,1266.97L1070.92,1266.79L1070.9,1266.78L1070.89,1266.78L1070.52,1266.6ZM1401.01,1269.52L1400.98,1269.53L1400.5,1269.69L1400.45,1269.7L1399.98,1269.86L1399.94,1269.87L1399.46,1270.03L1399.42,1270.04L1398.92,1270.19L1398.91,1270.19L1398.47,1270.33L1398.24,1270.39L1398.01,1270.46L1397.8,1270.52L1397.32,1270.65C1397.48,1270.61 1397.64,1270.57 1397.8,1270.52L1397.88,1270.5L1398.01,1270.46L1398.12,1270.43L1398.24,1270.39L1398.39,1270.35L1398.47,1270.33C1398.62,1270.28 1398.76,1270.24 1398.91,1270.19L1398.91,1270.19L1398.92,1270.19L1399.26,1270.09L1399.42,1270.04L1399.44,1270.03L1399.46,1270.03L1399.71,1269.95L1399.94,1269.87L1399.96,1269.87L1399.98,1269.86L1400.17,1269.8L1400.45,1269.7L1400.48,1269.69L1400.5,1269.69L1400.62,1269.65L1400.98,1269.53L1401,1269.52L1401.01,1269.52ZM1402.81,1268.88L1402.43,1269.02L1402.81,1268.88L1403.17,1268.74L1402.81,1268.88ZM1405.11,1267.97C1404.74,1268.12 1404.37,1268.27 1404,1268.42C1404.37,1268.27 1404.74,1268.12 1405.11,1267.97ZM1411.67,1264.79C1411.37,1264.96 1411.06,1265.12 1410.76,1265.29C1411.06,1265.12 1411.37,1264.96 1411.67,1264.79ZM1034.17,1153.55C1033.8,1154.53 1033.44,1155.51 1033.11,1156.5C1033.44,1155.51 1033.8,1154.53 1034.17,1153.55ZM1034.75,1152.13L1034.93,1151.7C1034.87,1151.84 1034.81,1151.98 1034.75,1152.13L1034.71,1152.22L1034.67,1152.33L1034.63,1152.42L1034.55,1152.61L1034.5,1152.74L1034.48,1152.78C1034.43,1152.9 1034.38,1153.02 1034.34,1153.14L1034.48,1152.78L1034.55,1152.61L1034.67,1152.33L1034.75,1152.13ZM1035.56,1150.29L1035.72,1149.93C1035.67,1150.05 1035.62,1150.17 1035.56,1150.29L1035.54,1150.33L1035.51,1150.4L1035.45,1150.53L1035.39,1150.66L1035.36,1150.73L1035.34,1150.77C1035.28,1150.89 1035.23,1151.01 1035.18,1151.13L1035.34,1150.77L1035.39,1150.66L1035.51,1150.4L1035.56,1150.29ZM1045.71,1134.89L1046.01,1134.56C1045.91,1134.67 1045.81,1134.78 1045.71,1134.89L1045.7,1134.89C1045.62,1134.99 1045.53,1135.08 1045.45,1135.18L1045.43,1135.19L1045.36,1135.28L1045.21,1135.44L1045.19,1135.48L1045.15,1135.51L1045.07,1135.61L1044.97,1135.72L1044.93,1135.77L1044.87,1135.83L1044.8,1135.92L1044.73,1136L1044.67,1136.07L1044.6,1136.15L1044.54,1136.22L1044.49,1136.28L1044.41,1136.38L1044.32,1136.48L1044.28,1136.53L1044.25,1136.56L1044.14,1136.7L1044.05,1136.8L1044.03,1136.83C1043.95,1136.93 1043.86,1137.03 1043.78,1137.13L1044.03,1136.83L1044.14,1136.7L1044.28,1136.53L1044.41,1136.38L1044.54,1136.22L1044.67,1136.07L1044.8,1135.92L1044.93,1135.77L1045.07,1135.61L1045.19,1135.48L1045.36,1135.28L1045.45,1135.18L1045.71,1134.89ZM1046.77,1133.74C1046.62,1133.9 1046.46,1134.07 1046.31,1134.24L1046.62,1133.91L1046.77,1133.74ZM1443.8,1131.14L1443.82,1131.18L1444.04,1131.57C1443.96,1131.44 1443.89,1131.31 1443.82,1131.18L1443.81,1131.16L1443.8,1131.14L1443.75,1131.06L1443.58,1130.76L1443.8,1131.14ZM1442.81,1129.45L1442.85,1129.52L1442.81,1129.45L1442.71,1129.28L1442.81,1129.45ZM1439.43,1124.53L1439.58,1124.71L1439.5,1124.62L1439.43,1124.53C1439.38,1124.46 1439.32,1124.39 1439.26,1124.33L1439.43,1124.53ZM1437.72,1122.65C1437.65,1122.58 1437.58,1122.52 1437.51,1122.45L1437.64,1122.58L1437.72,1122.65ZM1061.72,1121.56L1062.08,1121.33C1061.95,1121.41 1061.84,1121.48 1061.72,1121.56L1061.65,1121.6L1061.44,1121.74L1061.72,1121.56ZM1435.86,1121.07L1435.98,1121.16L1435.87,1121.08L1435.86,1121.07C1435.82,1121.04 1435.77,1121.01 1435.73,1120.98L1435.86,1121.07ZM1434.67,1120.28C1434.8,1120.36 1434.94,1120.44 1435.08,1120.54C1434.94,1120.44 1434.8,1120.36 1434.67,1120.28ZM1433.16,1119.5L1433.3,1119.56L1433.17,1119.51L1433.16,1119.5C1433.11,1119.48 1433.07,1119.46 1433.02,1119.44L1433.16,1119.5ZM1065.5,1119.26L1065.38,1119.33L1065.5,1119.26L1065.65,1119.18L1065.5,1119.26ZM1430.05,1118.54L1429.9,1118.49L1429.56,1118.43L1429.9,1118.49L1430.05,1118.54C1430.41,1118.64 1430.73,1118.74 1431.03,1118.82C1431.27,1118.89 1431.49,1118.95 1431.69,1119.01C1431.49,1118.95 1431.27,1118.89 1431.03,1118.82C1430.73,1118.74 1430.41,1118.64 1430.05,1118.54ZM1424.31,1117.43C1425.85,1117.72 1427.38,1118.01 1428.91,1118.3C1427.38,1118.01 1425.85,1117.72 1424.31,1117.43ZM1068.59,1117.55L1069.02,1117.33C1068.87,1117.4 1068.73,1117.48 1068.59,1117.55L1068.57,1117.56L1068.19,1117.76L1068.59,1117.55ZM1073.1,1115.29L1073.6,1115.05C1073.43,1115.13 1073.27,1115.21 1073.1,1115.29L1073.08,1115.3L1073.01,1115.33L1072.67,1115.49L1072.59,1115.53L1072.56,1115.55L1072.48,1115.58L1072.21,1115.71L1072.09,1115.78L1072.04,1115.8L1071.96,1115.83L1071.75,1115.94L1071.58,1116.02L1071.52,1116.05L1071.45,1116.08L1071.28,1116.17L1071.08,1116.27L1071,1116.31L1070.95,1116.34L1070.82,1116.4L1070.58,1116.52L1070.49,1116.57L1070.45,1116.59L1070.36,1116.63L1070.07,1116.78L1069.97,1116.83L1069.95,1116.84L1069.9,1116.87L1069.46,1117.1L1069.95,1116.84L1070.07,1116.78L1070.45,1116.59L1070.58,1116.52L1070.95,1116.34L1071.08,1116.27L1071.45,1116.08L1071.58,1116.02L1071.96,1115.83L1072.09,1115.78L1072.48,1115.58L1072.59,1115.53L1073.01,1115.33L1073.1,1115.29ZM1076.26,1113.85C1075.66,1114.11 1075.06,1114.38 1074.46,1114.65C1075.06,1114.38 1075.66,1114.11 1076.26,1113.85ZM1079.96,1112.29L1079.65,1112.41L1079.96,1112.29L1080.42,1112.1L1079.96,1112.29Z"/>
        <g>
            <g transform="matrix(1,0,0,1,-8.03746,-0.53583)">
                <path d="M972.825,1020.98C961.856,1104.08 937.46,1332.3 1074.63,1444.29C1211.81,1556.28 1256.28,1591.64 1212.34,1659.16C1168.77,1726.12 1029.09,1689.16 903.167,1495.73C777.247,1302.3 793.857,1208.52 972.825,1020.98Z"/>
            </g>
            <g transform="matrix(-1,0,0,1,2473.86,-0.53583)">
                <path d="M972.825,1020.98C961.856,1104.08 937.46,1332.3 1074.63,1444.29C1211.81,1556.28 1256.28,1591.64 1212.34,1659.16C1168.77,1726.12 1029.09,1689.16 903.167,1495.73C777.247,1302.3 793.857,1208.52 972.825,1020.98Z"/>
            </g>
        </g>
    </g>
</svg>
